<?xml version="1.0" encoding="UTF-8" standalone="no"?>
<!-- Created with Inkscape (http://www.inkscape.org/) -->

<svg
   xmlns:dc="http://purl.org/dc/elements/1.1/"
   xmlns:cc="http://creativecommons.org/ns#"
   xmlns:rdf="http://www.w3.org/1999/02/22-rdf-syntax-ns#"
   xmlns:svg="http://www.w3.org/2000/svg"
   xmlns="http://www.w3.org/2000/svg"
   xmlns:sodipodi="http://sodipodi.sourceforge.net/DTD/sodipodi-0.dtd"
   xmlns:inkscape="http://www.inkscape.org/namespaces/inkscape"
   id="svg3122"
   version="1.1"
   inkscape:version="0.48.5 r10040"
   width="48"
   height="48"
   sodipodi:docname="48.svg">
  <metadata
     id="metadata3128">
    <rdf:RDF>
      <cc:Work
         rdf:about="">
        <dc:format>image/svg+xml</dc:format>
        <dc:type
           rdf:resource="http://purl.org/dc/dcmitype/StillImage" />
        <dc:title />
      </cc:Work>
    </rdf:RDF>
  </metadata>
  <defs
     id="defs3126" />
  <sodipodi:namedview
     pagecolor="#ffffff"
     bordercolor="#666666"
     borderopacity="1"
     objecttolerance="10"
     gridtolerance="10"
     guidetolerance="10"
     inkscape:pageopacity="0"
     inkscape:pageshadow="2"
     inkscape:window-width="640"
     inkscape:window-height="480"
     id="namedview3124"
     showgrid="true"
     inkscape:zoom="38.360543"
     inkscape:cx="34.641062"
     inkscape:cy="4.1827562"
     inkscape:current-layer="svg3122"
     showguides="true"
     inkscape:guide-bbox="true">
    <inkscape:grid
       type="xygrid"
       id="grid3132"
       empspacing="4"
       visible="true"
       enabled="true"
       snapvisiblegridlinesonly="true" />
    <sodipodi:guide
       orientation="1,0"
       position="64,16"
       id="guide4041" />
  </sodipodi:namedview>
  <path
     style="fill:#2299dd;fill-opacity:1;stroke:none"
     d="M 12 4 C 7.568 4 4 7.568 4 12 L 4 36 C 4 40.432 7.568 44 12 44 L 36 44 C 40.432 44 44 40.432 44 36 L 44 12 C 44 7.568 40.432 4 36 4 L 12 4 z M 10 12 L 18 12 L 18 36 L 10 36 L 10 12 z M 30 12 L 38 12 L 38 36 L 30 36 L 30 12 z M 20 19 L 28 19 L 28 36 L 20 36 L 20 19 z "
     id="rect3141" />
  <path
     style="fill:#000000;fill-opacity:0.25098039;stroke:none"
     d="m 10,36 8,8 18,0 c 4.524913,0 8,-3.513864 8,-8 l 0,-18 -6,-6 0,24 -8,0 0,-15 -2,-2 0,17 -8,0 0,-17 5,0 -7,-7 0,24 z"
     id="path3036"
     inkscape:connector-curvature="0"
     sodipodi:nodetypes="ccccccccccccccccc" />
</svg>
